<svg xmlns="http://www.w3.org/2000/svg" width="19" height="17" viewBox="0 0 19 17"><path fill-rule="evenodd" d="M9.155.003C8.74.003 7.91.057 7.02.421c-.51.207-.968.488-1.363.834-.47.412-.853.92-1.138 1.51-.418.865-.319 2.322-.24 3.492.01.127.018.258.027.385a.784.784 0 0 1-.307.054c-.236 0-.516-.07-.833-.207a.798.798 0 0 0-.317-.06c-.188 0-.387.051-.56.145-.216.117-.356.283-.394.468-.025.121-.024.362.266.607.16.134.393.258.696.369.079.028.173.056.273.085.346.102.87.255 1.006.552.07.15.04.348-.088.587a5.67 5.67 0 0 1-.95 1.368c-.347.374-.73.686-1.136.928a4.386 4.386 0 0 1-1.594.575c-.221.033-.379.215-.366.421a.5.5 0 0 0 .045.176c.09.194.297.358.633.502.411.176 1.026.325 1.827.44.04.072.083.25.112.373.03.13.062.264.107.406.05.153.176.337.502.337.123 0 .265-.025.43-.055.24-.043.569-.103.98-.103.227 0 .463.019.7.055.459.07.853.328 1.31.626.669.436 1.425.93 2.582.93.031 0 .063 0 .094-.003.038.002.085.003.135.003 1.157 0 1.913-.494 2.581-.93.458-.299.852-.556 1.31-.626.238-.036.473-.055.701-.055.393 0 .703.046.98.096.182.033.322.049.43.049.26 0 .435-.12.502-.332.044-.139.076-.27.107-.402.027-.114.07-.298.111-.37.802-.116 1.417-.264 1.828-.44.335-.144.542-.308.632-.5a.485.485 0 0 0 .046-.177c.013-.206-.145-.388-.366-.422-2.498-.38-3.624-2.75-3.67-2.85-.138-.26-.167-.457-.098-.608.136-.296.66-.45 1.006-.551.1-.03.195-.057.273-.086.341-.124.585-.259.746-.412.192-.182.229-.357.227-.472-.006-.277-.236-.523-.6-.643a1.151 1.151 0 0 0-.407-.072.976.976 0 0 0-.378.071 2.267 2.267 0 0 1-.779.205.753.753 0 0 1-.258-.052l.023-.335.003-.05c.08-1.17.18-2.628-.238-3.493a4.731 4.731 0 0 0-1.144-1.515A4.822 4.822 0 0 0 11.66.415 5.836 5.836 0 0 0 9.523 0l-.368.003z"></path></svg>