<svg data-name="Layer 1" xmlns="http://www.w3.org/2000/svg" viewBox="0 0 463 463"><title>Artboard 1</title><g class="cls-1"><circle fill="#fff" cx="231.5" cy="231.5" r="195"></circle><path fill="#f7e3b6" d="M231.5 64A167.5 167.5 0 1 1 64 231.5 167.5 167.5 0 0 1 231.5 64m0-55a222.54 222.54 0 0 0-86.62 427.49 222.54 222.54 0 0 0 173.24-410A221.08 221.08 0 0 0 231.5 9z"></path></g><circle fill="#fff" cx="231.5" cy="231.5" r="167.5"></circle><path fill="#202020" d="M369.78 137l-33.27 187.65a3.18 3.18 0 0 1-3.2 2.91h-33.49a4.26 4.26 0 0 1-4.08-2.91l-45.43-127.27h-1.45l-22.43 127.27a3.13 3.13 0 0 1-2.91 2.91h-31.45a2.42 2.42 0 0 1-2.63-2.91l34.08-192.21a3.17 3.17 0 0 1 3.2-2.92h33.2c2.33 0 3.79.88 4.37 2.92l45.14 127.26h1.17l28.16-156.83A167.47 167.47 0 0 0 111 347.73l37.73-215.29a3.18 3.18 0 0 1 3.21-2.92h35.23c1.75 0 2.62 1.17 2.33 2.92L146.77 376a167.48 167.48 0 0 0 223-239z"></path></svg>