<svg xmlns="http://www.w3.org/2000/svg" width="18" height="16" viewBox="0 0 18 16"><path fill-rule="evenodd" d="M0 8c0 3.275 2.216 6.09 5.388 7.327-.025-.558-.004-1.23.156-1.837l1.158-4.359s-.287-.51-.287-1.266c0-1.185.774-2.07 1.736-2.07.818 0 1.214.546 1.214 1.2 0 .732-.525 1.826-.795 2.84-.226.849.478 1.54 1.42 1.54 1.705 0 2.854-1.946 2.854-4.253 0-1.753-1.329-3.065-3.745-3.065-2.73 0-4.43 1.809-4.43 3.83 0 .698.23 1.189.592 1.569.167.176.19.245.13.447-.043.146-.142.501-.184.641-.06.203-.244.276-.45.2-1.258-.456-1.843-1.68-1.843-3.056 0-2.272 2.156-4.998 6.432-4.998 3.436 0 5.698 2.212 5.698 4.583 0 3.139-1.962 5.483-4.857 5.483-.97 0-1.885-.466-2.198-.996 0 0-.523 1.843-.633 2.198-.19.617-.564 1.234-.906 1.714.81.212 1.665.328 2.55.328 4.97 0 9-3.582 9-8s-4.03-8-9-8-9 3.582-9 8z"></path></svg>