<svg xmlns="http://www.w3.org/2000/svg" width="18" height="18" viewBox="0 0 18 18"><path fill-rule="evenodd" d="M15.441 15.993H2.206a.552.552 0 0 1-.552-.552V7.17H3.86c-.287.414-.384 1.185-.384 1.675 0 2.953 2.408 5.356 5.368 5.356 2.96 0 5.368-2.403 5.368-5.356 0-.49-.069-1.25-.425-1.675h2.206v8.272a.552.552 0 0 1-.552.552M8.844 5.458a3.39 3.39 0 0 1 3.394 3.386 3.39 3.39 0 0 1-3.394 3.386A3.39 3.39 0 0 1 5.45 8.844a3.39 3.39 0 0 1 3.393-3.386m4.391-3.252h1.655c.304 0 .551.247.551.551v1.655a.552.552 0 0 1-.551.551h-1.655a.552.552 0 0 1-.551-.551V2.757c0-.304.247-.551.551-.551M15.55 0H2.098A2.095 2.095 0 0 0 0 2.093v13.461c0 1.156.94 2.093 2.098 2.093h13.451a2.095 2.095 0 0 0 2.098-2.093V2.093C17.647.937 16.707 0 15.549 0"></path></svg>