<svg data-behavior="copy-svg" id="directLink" x="0px" y="0px" viewBox="119.1 223.8 356.4 359.4" enable-background="new 119.1 223.8 356.4 359.4" xml:space="preserve" xmlns="http://www.w3.org/2000/svg"><path fill="#FFFFFF" d="M290.9,310.1c-10.4,10.4-14.9,22.3-14.9,35.7c0,13.4,4.5,26.8,13.4,37.2l17.9-17.9 c-4.5-6-7.4-11.9-7.4-19.3c0-7.4,3-13.4,7.4-19.3l69.9-69.9c6-6,11.9-7.4,19.3-7.4s14.9,3,19.3,7.4l26.8,26.8 c6,6,7.4,11.9,7.4,19.3c0,7.4-3,14.9-7.4,19.3l-69.9,69.9c-6,6-11.9,7.4-19.3,7.4c-7.4,0-13.4-3-19.3-7.4l-16.4,19.3 c10.4,8.9,22.3,13.4,37.2,13.4c13.4,0,26.8-6,35.7-14.9l69.9-69.9c10.4-10.4,14.9-22.3,14.9-37.2c0-14.9-6-26.8-14.9-37.2 l-26.8-26.8c-10.4-10.4-22.3-14.9-37.2-14.9c-14.9,0-26.8,4.5-37.2,14.9L290.9,310.1z"></path><path fill="#FFFFFF" d="M243.3,440.3c-4.5,4.5-6,11.9,0,17.9c4.5,4.5,13.4,4.5,17.9,0l91.5-91.5c4.5-4.5,4.5-13.4,0-17.9 c-6-6-13.4-4.5-17.9,0L243.3,440.3z"></path><path fill="#FFFFFF" d="M133.9,467.1c-10.4,10.4-14.9,22.3-14.9,37.2s4.5,26.8,14.9,37.2l26.8,26.8 c10.4,10.4,22.3,14.9,37.2,14.9s26.8-6,37.2-14.9l69.9-69.9c10.4-10.4,14.9-22.3,14.9-35.7s-4.5-26.8-13.4-37.2l-19.3,16.4 c6,6,7.4,11.9,7.4,19.3c0,7.4-3,13.4-7.4,19.3l-69.9,69.9c-6,6-11.9,7.4-19.3,7.4c-7.4,0-14.9-3-19.3-7.4l-26.8-26.8 c-6-4.5-7.4-11.9-7.4-19.3c0-7.4,3-14.9,7.4-19.3l69.9-69.9c6-6,11.9-7.4,19.3-7.4c7.4,0,13.4,3,19.3,7.4l17.9-17.9 c-10.4-10.4-22.3-14.9-37.2-13.4c-13.4,0-26.8,6-35.7,14.9L133.9,467.1z"></path></svg>